# xmcd
#
# Track frame offsets: 
#        150
#        17248
#        29016
#        43586
#        56184
#        70247
#        84722
#        102389
#        116193
#        133607
#        144009
#        161108
#        178221
#        193406
#        206543
#        222473
#
# Disc length: 3174 seconds
#
# Revision: 1
# Processed by: cddbd v1.4PL0 Copyright (c) Steve Scherf et al.
# Submitted via: ExactAudioCopy v0.95a3
#
DISCID=000c6410
DTITLE=Various Artist - Carga Pesada
DYEAR=2003
DGENRE=
TTITLE0=Chitãozinho e Xororó - Frete
TTITLE1=Bruno Marrone - Tá liberado
TTITLE2=Sula Miranda - Sonho Lindo
TTITLE3=Rio Negro and Solimões - Na sola da bota
TTITLE4=Sérgio Reis - Outra vez
TTITLE5=Leonardo - Te amo demais
TTITLE6=Marcos Paulo and Juliano - Rédeas do possante
TTITLE7=Maurício and Mauri - Namoro Escondido
TTITLE8=Roberta Miranda - Sem a sombra a dor
TTITLE9=Grupo Tradição - Hei!
TTITLE10=Tonny Francis - Romaria
TTITLE11=Yassir Chediak - Estradas
TTITLE12=André and Adriano - Vou gastar meus 10 reais
TTITLE13=Antonio Fagundes - Vai se chamar saudade
TTITLE14=Alpha Beat - Saudade de casa
TTITLE15=Alpha Beat - Parada pra descanco 2
EXTD=
EXTT0=
EXTT1=
EXTT2=
EXTT3=
EXTT4=
EXTT5=
EXTT6=
EXTT7=
EXTT8=
EXTT9=
EXTT10=
EXTT11=
EXTT12=
EXTT13=
EXTT14=
EXTT15=
PLAYORDER=
